<svg width="236" height="284" viewBox="0 0 236 284" fill="none" xmlns="http://www.w3.org/2000/svg">
<path d="M30.49 137.227V133.956C30.49 132.724 30.1906 131.76 29.6004 131.061C29.0073 130.362 28.2007 130.012 27.1807 130.012C26.1148 130.012 25.304 130.362 24.7481 131.061C24.1894 131.76 23.9115 132.737 23.9115 133.992V137.227H30.49ZM42.9981 144.123H18.118V133.459C18.118 130.284 18.8959 127.765 20.4475 125.906C21.999 124.046 24.1622 123.116 26.9357 123.116C29.778 123.116 31.9814 124.098 33.5443 126.065C35.1102 128.033 35.8909 130.615 35.8909 133.814V137.227H42.9981V144.123Z" fill="#006838"/>
<path d="M42.9048 119.509L18.0591 118.244L18.4087 111.322L43.2587 112.587L42.9048 119.509Z" fill="#006838"/>
<path d="M43.2632 108.038L19.3716 101.092L24.9573 81.8745L30.5889 83.5107L26.9071 96.1748L30.5273 97.2264L33.861 85.7587L39.0842 87.276L35.7477 98.7451L39.5384 99.8469L43.266 87.0123L48.9005 88.6485L43.2632 108.038Z" fill="#006838"/>
<path d="M43.6691 72.5967L46.2722 68.8644C46.9355 67.9116 47.2334 67.0161 47.1704 66.1765C47.1045 65.3384 46.6848 64.6478 45.9069 64.1033C45.1132 63.5489 44.321 63.3955 43.5402 63.6434C42.7594 63.8956 42.0302 64.5045 41.354 65.4759L38.771 69.1781L43.6691 72.5967ZM50.3336 85.6562L29.9276 71.4175L36.6608 61.7694C38.7338 58.7936 41.0073 57.0886 43.4815 56.6473C45.5301 56.2819 47.5601 56.8049 49.5843 58.2147C52.5756 60.3037 53.6902 63.162 52.9237 66.7854L63.4305 66.8786L58.8748 73.4105L49.8265 73.2085L48.0987 75.6871L54.2804 79.9997L50.3336 85.6562Z" fill="#006838"/>
<path d="M63.1099 51.0014L66.7859 48.3193C67.7243 47.6359 68.3002 46.8851 68.5122 46.0699C68.7271 45.2561 68.5538 44.4652 67.9936 43.6987C67.422 42.9135 66.7229 42.5138 65.9049 42.4952C65.0854 42.4765 64.1972 42.8175 63.2388 43.5153L59.5943 46.1759L63.1099 51.0014ZM65.1657 65.518L50.5029 45.4137L60.0068 38.482C62.9365 36.3458 65.6456 35.4704 68.1254 35.8587C70.1784 36.1796 71.9304 37.3358 73.3845 39.3274C75.5334 42.276 75.6581 45.3392 73.7527 48.5199L83.6592 52.0273L77.2268 56.7209L68.7372 53.5861L66.2974 55.3656L70.7356 61.4533L65.1657 65.518Z" fill="#006838"/>
<path d="M85.8216 51.4023L78.2847 27.6888L97.3555 21.6254L99.1334 27.2174L86.5651 31.2105L87.7055 34.8024L99.0876 31.1847L100.736 36.367L89.3544 39.9847L90.5492 43.7456L103.284 39.6967L105.062 45.2873L85.8216 51.4023Z" fill="#006838"/>
<path d="M128.647 46.2853C125.076 45.8125 122.222 44.1978 120.09 41.4426C117.956 38.686 117.133 35.4623 117.623 31.7744C118.102 28.1567 119.743 25.2769 122.548 23.1392C125.352 21.0016 128.61 20.1763 132.322 20.6677C136.714 21.2494 139.939 23.4444 141.989 27.2541L136.475 30.4678C135.2 28.3645 133.517 27.1739 131.426 26.8959C129.713 26.6681 128.216 27.1165 126.947 28.2384C125.673 29.3617 124.917 30.8517 124.67 32.7057C124.422 34.5855 124.766 36.2274 125.703 37.6301C126.641 39.0327 127.967 39.8494 129.681 40.0772C130.879 40.2348 131.933 40.1173 132.847 39.7233C133.759 39.3307 134.694 38.6946 135.645 37.8163L140.307 42.1633C138.778 43.7536 137.095 44.9242 135.251 45.6707C133.409 46.4186 131.204 46.6234 128.647 46.2853Z" fill="#006838"/>
<path d="M154.702 48.2933C156.359 49.1558 158.012 49.2805 159.654 48.6644C161.297 48.0512 162.549 46.9121 163.413 45.2501C164.267 43.6096 164.459 41.929 163.992 40.204C163.528 38.479 162.476 37.1909 160.835 36.3384C159.197 35.4859 157.554 35.3684 155.912 35.9817C154.27 36.5977 153.017 37.7368 152.157 39.3959C151.303 41.0364 151.104 42.7156 151.56 44.4349C152.014 46.1528 153.063 47.4394 154.702 48.2933ZM162.005 54.8567C158.564 55.8984 155.151 55.5402 151.768 53.7808C148.384 52.0199 146.137 49.4424 145.03 46.0496C143.924 42.6554 144.208 39.3515 145.881 36.1335C147.54 32.9371 150.091 30.818 153.531 29.775C156.971 28.7334 160.383 29.0916 163.767 30.851C167.151 32.6118 169.397 35.1894 170.505 38.5821C171.612 41.9749 171.33 45.2802 169.657 48.4982C167.995 51.6932 165.443 53.8137 162.005 54.8567Z" fill="#006838"/>
<path d="M165.708 61.7554L183.84 44.72L197.469 59.228L193.064 63.3658L184.157 53.8839L181.075 56.7794L189.131 65.3559L184.959 69.2745L176.905 60.698L170.428 66.7815L165.708 61.7554Z" fill="#006838"/>
<path d="M180.719 78.6022L203.084 67.7004L211.807 85.594L206.374 88.2403L200.675 76.5447L196.873 78.3987L202.029 88.9767L196.885 91.4841L191.73 80.9075L183.742 84.8017L180.719 78.6022Z" fill="#006838"/>
<path d="M190.096 99.0817L214.709 95.4382L217.639 115.236L211.838 116.093L209.904 103.048L206.176 103.599L207.926 115.414L202.549 116.212L200.8 104.396L196.895 104.975L198.852 118.195L193.052 119.054L190.096 99.0817Z" fill="#006838"/>
<path d="M192.313 123.322H217.193V143.335H211.326V130.148H207.562V142.091H202.123V130.148H198.179V143.511H192.313V123.322Z" fill="#006838"/>
<path d="M37.1983 210.01L51.3467 202.172L52.232 203.769L39.5578 210.791L43.9716 218.756L42.4946 219.571L37.1983 210.01Z" fill="#006838"/>
<path d="M57.2127 214.95L58.7857 213.774L60.0034 215.401L58.4319 216.579L57.2127 214.95ZM45.6258 223.76L55.1899 216.606L56.2543 218.029L46.6916 225.184L45.6258 223.76Z" fill="#006838"/>
<path d="M55.6612 233.38C56.5078 234.231 57.515 234.644 58.6754 234.619C59.8329 234.592 60.916 234.08 61.9188 233.078C62.8887 232.113 63.3886 231.037 63.4187 229.854C63.4474 228.672 63.0477 227.666 62.2211 226.839C61.4059 226.02 60.3816 225.614 59.1539 225.624C57.9204 225.636 56.8302 226.11 55.8832 227.059C54.9348 228.003 54.4564 229.089 54.4492 230.315C54.442 231.54 54.846 232.56 55.6612 233.38ZM54.7615 234.734C53.432 233.404 52.9564 231.728 53.3318 229.701L51.7115 231.315L50.4537 230.054L62.3987 218.147L63.6551 219.408L58.4691 224.576C60.5693 224.177 62.2727 224.633 63.5778 225.941C64.6536 227.02 65.1952 228.364 65.1995 229.971C65.2023 231.579 64.5333 233.05 63.1895 234.387C61.8715 235.707 60.4074 236.361 58.7929 236.359C57.1826 236.356 55.8388 235.813 54.7615 234.734Z" fill="#006838"/>
<path d="M68.3689 237.421L74.7411 241.729C75.3012 240.712 75.5233 239.705 75.4044 238.705C75.2898 237.706 74.7669 236.894 73.8357 236.265C72.9933 235.696 72.0621 235.518 71.0378 235.74C70.0178 235.959 69.1253 236.522 68.3689 237.421ZM67.5666 238.609C66.9879 239.685 66.8245 240.743 67.0824 241.781C67.3374 242.819 67.9219 243.642 68.8273 244.256C70.0135 245.059 71.3688 245.294 72.8916 244.967L73.2526 246.411C71.3057 246.897 69.5293 246.599 67.9219 245.512C66.5294 244.572 65.6856 243.298 65.3833 241.693C65.0854 240.087 65.4507 238.525 66.4736 237.004C67.4492 235.564 68.727 234.647 70.3115 234.257C71.896 233.869 73.3601 234.13 74.7139 235.047C76.1307 236.001 76.9187 237.257 77.0748 238.816C77.231 240.372 76.8012 241.902 75.784 243.408C75.6551 243.599 75.5305 243.766 75.4159 243.913L67.5666 238.609Z" fill="#006838"/>
<path d="M77.3869 250.778L82.4583 239.961L84.0686 240.719L82.7463 243.54C83.6001 242.805 84.5442 242.335 85.5714 242.138C86.6 241.94 87.5985 242.093 88.5713 242.6L87.7575 244.335L87.6286 244.277C86.3908 243.694 85.1616 243.645 83.9468 244.131C82.7319 244.616 81.7563 245.648 81.0171 247.224L78.9971 251.532L77.3869 250.778Z" fill="#006838"/>
<path d="M91.9229 256.773C90.9387 256.461 90.2396 255.954 89.8227 255.25C89.4073 254.545 89.3757 253.643 89.7239 252.538L91.8957 245.665L90.3098 245.165L90.7854 243.666L92.3699 244.169L93.4572 240.732L95.152 241.267L94.0646 244.704L97.6791 245.846L97.2063 247.346L93.5933 246.204L91.4888 252.855C91.0906 254.117 91.5289 254.951 92.8054 255.358C93.3641 255.534 93.9572 255.575 94.5818 255.482L94.1234 256.937C93.4056 257.066 92.6693 257.01 91.9229 256.773Z" fill="#006838"/>
<path d="M104.843 245.488L107.533 242.524L109.227 243.656L106.258 245.713L104.843 245.488ZM100.955 252.032L108.553 253.232C108.631 252.078 108.4 251.07 107.873 250.212C107.346 249.358 106.526 248.841 105.414 248.668C104.412 248.509 103.493 248.744 102.664 249.375C101.829 250.012 101.261 250.897 100.955 252.032ZM100.733 253.449C100.664 254.671 100.966 255.694 101.635 256.528C102.309 257.357 103.184 257.857 104.267 258.031C105.679 258.253 107.009 257.895 108.248 256.95L109.188 258.107C107.629 259.373 105.894 259.853 103.978 259.551C102.319 259.29 101.013 258.496 100.064 257.165C99.1124 255.84 98.7801 254.271 99.0637 252.459C99.3345 250.741 100.104 249.368 101.375 248.345C102.642 247.321 104.084 246.935 105.697 247.189C107.387 247.457 108.631 248.262 109.431 249.606C110.234 250.949 110.493 252.517 110.209 254.313C110.171 254.542 110.132 254.747 110.088 254.927L100.733 253.449Z" fill="#006838"/>
<path d="M113.791 263.064L113.533 262.249C114.576 261.891 115.106 261.31 115.128 260.509L115.133 260.28L114.301 260.256L114.367 257.833L116.491 257.887L116.437 259.968C116.411 260.89 116.189 261.593 115.769 262.075C115.347 262.557 114.686 262.886 113.791 263.064Z" fill="#006838"/>
<path d="M130.656 245.46L132.198 241.764L134.169 242.267L132.062 245.197L130.656 245.46ZM129.185 252.931L136.749 251.515C136.428 250.4 135.878 249.525 135.093 248.897C134.312 248.268 133.368 248.056 132.261 248.266C131.261 248.452 130.476 248.983 129.904 249.859C129.331 250.733 129.09 251.757 129.185 252.931ZM129.449 254.336C129.792 255.51 130.421 256.378 131.334 256.937C132.242 257.493 133.236 257.673 134.312 257.471C135.721 257.207 136.849 256.422 137.703 255.121L138.977 255.892C137.932 257.61 136.461 258.644 134.552 259.003C132.898 259.311 131.403 258.998 130.063 258.064C128.719 257.134 127.883 255.766 127.546 253.965C127.224 252.254 127.492 250.706 128.345 249.313C129.195 247.925 130.424 247.078 132.032 246.78C133.712 246.463 135.152 246.807 136.359 247.803C137.564 248.8 138.335 250.191 138.669 251.979C138.709 252.206 138.742 252.411 138.758 252.597L129.449 254.336Z" fill="#006838"/>
<path d="M149.377 251.834C150.463 251.4 151.271 250.664 151.802 249.623C152.334 248.58 152.38 247.512 151.941 246.411C151.5 245.308 150.736 244.569 149.651 244.19C148.562 243.811 147.467 243.839 146.363 244.281C145.278 244.713 144.503 245.425 144.045 246.411C143.583 247.401 143.579 248.46 144.032 249.588C144.462 250.678 145.197 251.427 146.235 251.844C147.27 252.261 148.318 252.257 149.377 251.834ZM151.709 257.621C149.834 258.368 147.947 258.522 146.048 258.085L146.288 256.499C147.964 256.926 149.579 256.829 151.123 256.211C152.368 255.718 153.216 254.986 153.666 254.018C154.119 253.049 154.09 251.927 153.584 250.654L153.059 249.345C152.511 251.371 151.37 252.733 149.638 253.423C148.234 253.983 146.823 253.986 145.399 253.435C143.979 252.882 142.956 251.824 142.334 250.265C141.711 248.705 141.73 247.235 142.389 245.852C143.049 244.471 144.073 243.503 145.462 242.947C147.235 242.242 148.977 242.408 150.685 243.454L149.89 241.458L151.543 240.798L155.196 249.963C155.864 251.636 155.912 253.132 155.347 254.455C154.753 255.836 153.537 256.892 151.709 257.621Z" fill="#006838"/>
<path d="M164.555 245.627C165.489 245.026 166.114 244.266 166.436 243.346C166.76 242.423 166.67 241.569 166.16 240.777L165.558 239.843C164.393 240.194 163.325 240.68 162.352 241.304C161.431 241.896 160.83 242.545 160.55 243.246C160.269 243.948 160.335 244.617 160.742 245.251C161.133 245.86 161.689 246.19 162.406 246.241C163.125 246.29 163.845 246.085 164.555 245.627ZM165.038 247.019C164.014 247.679 162.955 247.966 161.858 247.883C160.763 247.803 159.893 247.262 159.252 246.266C158.574 245.217 158.442 244.155 158.855 243.087C159.266 242.016 160.123 241.062 161.431 240.218C162.469 239.552 163.584 239.035 164.777 238.671L164.577 238.361C164.011 237.479 163.32 236.973 162.499 236.841C161.681 236.705 160.8 236.944 159.856 237.552C158.869 238.185 158.01 239.081 157.266 240.233L156.034 239.298C156.909 237.927 157.944 236.858 159.137 236.092C160.561 235.175 161.879 234.848 163.094 235.112C164.243 235.361 165.226 236.122 166.041 237.389L169.992 243.531L168.516 244.482L167.551 242.985C167.39 244.7 166.555 246.047 165.038 247.019Z" fill="#006838"/>
<path d="M174.555 239.823L163.663 226.944L165.024 225.795L175.912 238.674L174.555 239.823Z" fill="#006838"/>
<path d="M180.07 234.855L171.629 226.402L172.888 225.143L181.331 233.596L180.07 234.855ZM169.704 224.635L168.318 223.247L169.755 221.81L171.143 223.198L169.704 224.635Z" fill="#006838"/>
<path d="M187.843 226.541C187.19 227.339 186.46 227.805 185.652 227.93C184.843 228.054 183.991 227.753 183.095 227.024L177.508 222.469L176.458 223.758L175.239 222.765L176.292 221.477L173.495 219.199L174.621 217.817L177.416 220.094L179.81 217.158L181.025 218.151L178.633 221.087L184.042 225.5C185.068 226.336 186.003 226.236 186.85 225.195C187.22 224.743 187.478 224.209 187.624 223.59L188.804 224.553C188.658 225.268 188.339 225.93 187.843 226.541Z" fill="#006838"/>
<path d="M186.704 216.498L190.637 209.889C189.59 209.389 188.572 209.226 187.583 209.399C186.59 209.574 185.809 210.143 185.233 211.107C184.714 211.979 184.593 212.924 184.872 213.929C185.149 214.937 185.76 215.793 186.704 216.498ZM187.932 217.23C189.044 217.749 190.105 217.849 191.127 217.533C192.151 217.217 192.939 216.591 193.501 215.651C194.233 214.419 194.389 213.055 193.976 211.551L195.395 211.107C195.996 213.024 195.799 214.815 194.806 216.481C193.945 217.925 192.723 218.842 191.137 219.235C189.55 219.626 187.971 219.352 186.395 218.415C184.899 217.523 183.914 216.301 183.435 214.742C182.955 213.184 183.133 211.701 183.965 210.299C184.839 208.83 186.051 207.972 187.595 207.726C189.14 207.481 190.693 207.823 192.254 208.754C192.452 208.872 192.63 208.983 192.779 209.091L187.932 217.23ZM182.071 210.458L180.314 206.859L181.994 205.71L182.802 209.23L182.071 210.458Z" fill="#006838"/>
<path d="M117.998 3.70648C54.5994 3.70648 3.01983 55.2913 3.01983 118.696V165.302C3.01983 228.707 54.5994 280.292 117.998 280.292C181.401 280.292 232.98 228.707 232.98 165.302V118.696C232.98 55.2913 181.401 3.70648 117.998 3.70648ZM117.998 283.317C52.9333 283.317 -9.15527e-05 230.375 -9.15527e-05 165.302V118.696C-9.15527e-05 53.6236 52.9333 0.68338 117.998 0.68338C183.067 0.68338 236 53.6236 236 118.696V165.302C236 230.375 183.067 283.317 117.998 283.317Z" fill="#006838"/>
<path d="M175.028 183.159H172.044C173.686 177.865 174.574 172.243 174.574 166.416V161.272H175.028C181.061 161.272 185.969 166.179 185.969 172.212C185.969 178.246 181.061 183.159 175.028 183.159ZM153.867 195.982C152.444 197.704 150.901 199.324 149.248 200.826C148.698 201.327 148.135 201.815 147.561 202.289C145.837 203.711 144.011 205.012 142.094 206.18C135.063 210.457 126.812 212.923 117.997 212.923C116.396 212.923 114.813 212.841 113.251 212.682C111.69 212.523 110.151 212.287 108.638 211.976C107.127 211.665 105.64 211.281 104.186 210.828C102.73 210.374 101.306 209.851 99.915 209.262C99.2201 208.967 98.5325 208.656 97.8563 208.329C96.5011 207.674 95.1831 206.957 93.9037 206.18C92.6244 205.402 91.3867 204.564 90.1933 203.671C88.4025 202.33 86.7121 200.865 85.1319 199.286C76.711 190.864 71.4964 179.237 71.4964 166.416V159.606H164.5V166.416C164.5 176.833 161.057 186.463 155.249 194.224C154.804 194.821 154.343 195.406 153.867 195.982ZM175.028 151.197H174.574V117.582C174.574 100.032 166.543 84.3231 153.964 73.9371C153.265 73.3597 152.553 72.7995 151.827 72.2551C146.016 67.9067 139.346 64.6486 132.121 62.7846C130.313 62.3189 128.473 61.9393 126.602 61.6527C124.732 61.3661 122.831 61.1713 120.906 61.0739C119.943 61.0252 118.973 60.9994 117.997 60.9994C86.8037 60.9994 61.4237 86.3834 61.4237 117.582V149.531V159.606V166.416C61.4237 197.614 86.8037 222.996 117.997 222.996C118.973 222.996 119.943 222.972 120.906 222.922C122.831 222.824 124.732 222.63 126.602 222.343C128.473 222.056 130.313 221.678 132.121 221.213C139.346 219.349 146.016 216.089 151.827 211.741C152.553 211.198 153.265 210.637 153.964 210.06C159.593 205.412 164.308 199.698 167.802 193.232H175.028C186.615 193.232 196.041 183.805 196.041 172.212C196.041 160.626 186.615 151.197 175.028 151.197Z" fill="#5D351C"/>
<path d="M119.642 159.605C121.138 158.857 122.543 158.006 123.093 157.358C131.952 146.914 125.265 130.529 121.337 119.684C116.003 104.956 113.921 85.2165 124.722 72.6198C125.808 71.3532 118.102 74.5683 116.608 76.312C110.119 83.8783 107.592 95.0882 108.028 105.325C108.657 120.137 125.922 145.041 116.07 159.605H71.4977V166.416C71.4977 192.06 92.3579 212.922 117.999 212.922C143.639 212.922 164.5 192.06 164.5 166.416V159.605H119.642Z" fill="#A87C4F"/>
</svg>
